<svg width="35" height="35" viewBox="0 0 35 35" fill="none" xmlns="http://www.w3.org/2000/svg">
<path d="M14.3947 31.3947C14.3947 32.2183 14.7219 33.0081 15.3042 33.5905C15.8866 34.1728 16.6764 34.5 17.5 34.5C18.3236 34.5 19.1134 34.1728 19.6958 33.5905C20.2781 33.0081 20.6053 32.2183 20.6053 31.3947V20.6053H31.3947C32.2183 20.6053 33.0081 20.2781 33.5905 19.6958C34.1728 19.1134 34.5 18.3236 34.5 17.5C34.5 16.6764 34.1728 15.8866 33.5905 15.3042C33.0081 14.7219 32.2183 14.3947 31.3947 14.3947H20.6053V3.60526C20.6053 2.7817 20.2781 1.99186 19.6958 1.40951C19.1134 0.827161 18.3236 0.5 17.5 0.5C16.6764 0.5 15.8866 0.827161 15.3042 1.40951C14.7219 1.99186 14.3947 2.7817 14.3947 3.60526V14.3947H3.60526C2.7817 14.3947 1.99186 14.7219 1.40951 15.3042C0.827161 15.8866 0.5 16.6764 0.5 17.5C0.5 18.3236 0.827161 19.1134 1.40951 19.6958C1.99186 20.2781 2.7817 20.6053 3.60526 20.6053H14.3947V31.3947Z" fill="#4C9390" stroke="#4C9390"/>
</svg>
