<svg width="35" height="35" viewBox="0 0 35 35" fill="none" xmlns="http://www.w3.org/2000/svg">
<path fill-rule="evenodd" clip-rule="evenodd" d="M26.4369 12.2519C29.3856 11.7231 31.2969 9.62877 31.2206 8.04189C31.0981 5.48002 29.2487 4.19252 25.2619 4.17627H25.2106C24.9964 4.17663 24.7896 4.09783 24.63 3.95502C24.4703 3.81221 24.369 3.61544 24.3456 3.40252C24.3344 3.30175 24.3439 3.19975 24.3734 3.10276C24.4029 3.00576 24.4519 2.9158 24.5174 2.83836C24.5828 2.76092 24.6633 2.69763 24.7541 2.65236C24.8448 2.60708 24.9438 2.58076 25.045 2.57502L25.19 2.56627C26.3763 2.49127 27.6875 2.44752 28.395 2.61502C31.345 3.31439 32.9825 5.09314 33.12 7.95064C33.2294 10.2231 31.5387 12.4444 29.1594 14.2006L29.09 14.2506C29.5504 15.0565 29.8452 15.9569 29.9744 16.9519C30.4231 19.8319 30.0056 21.6231 30.3256 22.8094C30.6462 23.9963 32.1044 24.6469 32.68 25.9725C33.2556 27.2981 33.1488 27.8788 32.98 28.9225C32.8804 29.5417 32.6558 30.4463 32.3062 31.6363C32.2676 31.7676 32.1875 31.8829 32.0779 31.965C31.9683 32.047 31.835 32.0913 31.6981 32.0913H29.5913C29.2413 32.0913 28.9575 31.8075 28.9575 31.4575V31.1388C28.9575 31.055 28.9741 30.972 29.0064 30.8946C29.0387 30.8173 29.086 30.7471 29.1455 30.6882C29.2051 30.6293 29.2758 30.5827 29.3535 30.5513C29.4312 30.5198 29.5143 30.5041 29.5981 30.505C29.8827 30.5088 30.1252 30.4338 30.3256 30.28C30.8325 29.8925 30.8744 29.6763 30.8744 28.9225C30.8744 28.42 30.6915 27.9144 30.3256 27.4056C28.8569 26.4506 27.6288 25.7044 26.545 25.1556C26.4333 26.2569 26.214 27.2581 25.8869 28.1594C25.5431 29.1069 24.9458 30.3123 24.095 31.7756C24.0395 31.8718 23.9596 31.9516 23.8633 32.0071C23.7671 32.0625 23.6579 32.0915 23.5469 32.0913H21.8794C21.5356 32.0913 21.2544 31.8175 21.2462 31.4738L21.2387 31.1863C21.2343 31.0205 21.2951 30.8595 21.4079 30.738C21.5208 30.6165 21.6768 30.5441 21.8425 30.5363L22.7144 30.495C22.9719 30.4825 23.1962 30.3156 23.2819 30.0725C23.5706 29.2525 23.6894 28.4467 23.6381 27.655C23.5798 26.7621 23.2827 25.5442 22.7469 24.0013C20.5219 23.9813 16.0081 24.9469 14.9688 25.0331C14.7238 25.0536 14.4721 25.0523 14.2138 25.0294C14.0047 25.6863 13.874 26.3656 13.8244 27.0531C13.7602 27.8852 13.7544 29.3481 13.8069 31.4419C13.809 31.5264 13.7941 31.6105 13.7632 31.6892C13.7323 31.7679 13.6859 31.8396 13.6269 31.9002C13.5678 31.9607 13.4972 32.0088 13.4193 32.0416C13.3414 32.0744 13.2577 32.0913 13.1731 32.0913H11.4412C11.0912 32.0913 10.8075 31.8075 10.8075 31.4575V31.0225C10.8075 30.6725 11.0912 30.3888 11.4412 30.3888H11.7081C11.8071 30.3888 11.9045 30.3649 11.9923 30.3191C12.08 30.2734 12.1554 30.2072 12.2121 30.1261C12.2688 30.045 12.3051 29.9514 12.3179 29.8533C12.3307 29.7552 12.3196 29.6554 12.2856 29.5625C11.9578 28.6744 11.7026 27.7612 11.5225 26.8319L9.44 31.7069C9.34 31.94 9.11062 32.0913 8.85687 32.0913H6.55688C6.20688 32.0913 5.9225 31.8075 5.9225 31.4575V31.1338C5.9225 30.8263 6.14312 30.5631 6.44562 30.51L7.54062 30.3156C7.67812 30.2906 7.80437 30.2219 7.89875 30.1181C8.34333 29.6286 8.63 29.0188 8.75875 28.2888C9.07625 26.4881 9.2775 26.2931 8.75875 24.5619C8.59 23.9963 7.35125 23.445 6.55875 20.9394C6.05083 19.3356 5.60042 16.6113 5.2075 12.7663C5.19336 12.6276 5.13389 12.4974 5.0383 12.396C4.94272 12.2945 4.81634 12.2274 4.67875 12.205L3.46125 12.0081C3.27375 11.9775 3.10938 11.8644 3.01375 11.7L2.05 10.035L2.02375 9.99314C1.92938 9.86374 1.87741 9.70828 1.875 9.54814C1.875 9.42564 1.90688 9.29918 1.97063 9.16877C2.00479 9.09918 2.05 9.03793 2.10625 8.98502L3.36563 7.80189C3.45313 7.71877 3.51625 7.61252 3.54625 7.49564L3.6175 7.21252C3.68125 6.96064 3.82125 6.73377 4.0175 6.56377C4.39625 6.23752 4.67583 6.01877 4.85625 5.90752C5.08125 5.76918 5.54833 5.60335 6.2575 5.41002C5.8975 4.90627 5.7 4.46543 5.665 4.08752C5.61188 3.52064 5.56688 2.95939 5.79625 2.93752C5.95 2.92335 6.33896 3.34585 6.96312 4.20502C6.91437 3.11918 7.02417 2.6396 7.2925 2.76627C7.56083 2.89293 8.15042 3.62481 9.06125 4.96189L9.95 5.97439C10.3817 6.46617 10.6993 7.04734 10.88 7.67627C11.3292 9.23877 11.7563 10.3636 12.1613 11.0506C12.8856 12.2769 13.7738 13.7869 16.66 13.5631C19.5456 13.34 20.5163 12.7556 22.4388 12.4531C23.4228 12.3034 24.4143 12.2072 25.4087 12.165C25.7538 12.1488 26.0995 12.178 26.4369 12.2519Z" fill="#4C9390"/>
</svg>
