<svg width="16" height="18" viewBox="0 0 16 18" fill="none" xmlns="http://www.w3.org/2000/svg">
<path fill-rule="evenodd" clip-rule="evenodd" d="M15.0211 5.29285C15.2084 5.4802 15.3136 5.73427 15.3136 5.99918C15.3136 6.2641 15.2084 6.51817 15.0211 6.70552L7.53277 14.1938C7.43381 14.2928 7.31632 14.3713 7.18702 14.4249C7.05771 14.4785 6.91911 14.5061 6.77915 14.5061C6.63918 14.5061 6.50058 14.4785 6.37128 14.4249C6.24197 14.3713 6.12448 14.2928 6.02552 14.1938L2.305 10.474C2.20958 10.3818 2.13347 10.2716 2.08111 10.1497C2.02875 10.0278 2.00119 9.89671 2.00004 9.76406C1.99888 9.6314 2.02416 9.49985 2.0744 9.37707C2.12463 9.25428 2.19881 9.14274 2.29262 9.04893C2.38642 8.95513 2.49797 8.88094 2.62075 8.83071C2.74353 8.78048 2.87509 8.7552 3.00775 8.75635C3.1404 8.7575 3.2715 8.78506 3.39339 8.83742C3.51528 8.88978 3.62552 8.9659 3.71768 9.06132L6.77881 12.1224L13.6077 5.29285C13.7005 5.20001 13.8107 5.12636 13.9319 5.07611C14.0532 5.02586 14.1832 5 14.3144 5C14.4457 5 14.5756 5.02586 14.6969 5.07611C14.8181 5.12636 14.9283 5.20001 15.0211 5.29285Z" fill="white"/>
</svg>
