<svg width="35" height="46" viewBox="0 0 35 46" fill="none" xmlns="http://www.w3.org/2000/svg">
<g clip-path="url(#clip0_167_240)">
<path d="M30.625 5.75H23.3333C23.3333 2.57852 20.7174 0 17.5 0C14.2826 0 11.6667 2.57852 11.6667 5.75H4.375C1.95964 5.75 0 7.68164 0 10.0625V41.6875C0 44.0684 1.95964 46 4.375 46H30.625C33.0404 46 35 44.0684 35 41.6875V10.0625C35 7.68164 33.0404 5.75 30.625 5.75ZM17.5 3.59375C18.7122 3.59375 19.6875 4.55508 19.6875 5.75C19.6875 6.94492 18.7122 7.90625 17.5 7.90625C16.2878 7.90625 15.3125 6.94492 15.3125 5.75C15.3125 4.55508 16.2878 3.59375 17.5 3.59375ZM26.25 30.9062C26.25 31.3016 25.9219 31.625 25.5208 31.625H20.4167V36.6562C20.4167 37.0516 20.0885 37.375 19.6875 37.375H15.3125C14.9115 37.375 14.5833 37.0516 14.5833 36.6562V31.625H9.47917C9.07812 31.625 8.75 31.3016 8.75 30.9062V26.5938C8.75 26.1984 9.07812 25.875 9.47917 25.875H14.5833V20.8438C14.5833 20.4484 14.9115 20.125 15.3125 20.125H19.6875C20.0885 20.125 20.4167 20.4484 20.4167 20.8438V25.875H25.5208C25.9219 25.875 26.25 26.1984 26.25 26.5938V30.9062ZM26.25 13.6562C26.25 14.0516 25.9219 14.375 25.5208 14.375H9.47917C9.07812 14.375 8.75 14.0516 8.75 13.6562V12.2188C8.75 11.8234 9.07812 11.5 9.47917 11.5H25.5208C25.9219 11.5 26.25 11.8234 26.25 12.2188V13.6562Z" fill="#4C9390"/>
</g>
<defs>
<clipPath id="clip0_167_240">
<rect width="35" height="46" fill="white"/>
</clipPath>
</defs>
</svg>
