<svg width="45" height="45" viewBox="0 0 45 45" fill="none" xmlns="http://www.w3.org/2000/svg">
<path fill-rule="evenodd" clip-rule="evenodd" d="M26.7188 4.6875C26.7188 4.56318 26.6694 4.44395 26.5815 4.35604C26.4936 4.26814 26.3743 4.21875 26.25 4.21875H13.125C11.7575 4.21875 10.446 4.762 9.47898 5.72898C8.512 6.69597 7.96875 8.00748 7.96875 9.375V35.625C7.96875 36.9925 8.512 38.304 9.47898 39.271C10.446 40.238 11.7575 40.7812 13.125 40.7812H31.875C33.2425 40.7812 34.554 40.238 35.521 39.271C36.488 38.304 37.0313 36.9925 37.0313 35.625V17.1506C37.0313 17.0263 36.9819 16.9071 36.894 16.8192C36.8061 16.7313 36.6868 16.6819 36.5625 16.6819H28.125C27.752 16.6819 27.3944 16.5337 27.1306 16.27C26.8669 16.0063 26.7188 15.6486 26.7188 15.2756V4.6875ZM28.125 22.9688C28.498 22.9688 28.8556 23.1169 29.1194 23.3806C29.3831 23.6444 29.5313 24.002 29.5313 24.375C29.5313 24.748 29.3831 25.1056 29.1194 25.3694C28.8556 25.6331 28.498 25.7812 28.125 25.7812H16.875C16.502 25.7812 16.1444 25.6331 15.8806 25.3694C15.6169 25.1056 15.4688 24.748 15.4688 24.375C15.4688 24.002 15.6169 23.6444 15.8806 23.3806C16.1444 23.1169 16.502 22.9688 16.875 22.9688H28.125ZM28.125 30.4688C28.498 30.4688 28.8556 30.6169 29.1194 30.8806C29.3831 31.1444 29.5313 31.502 29.5313 31.875C29.5313 32.248 29.3831 32.6056 29.1194 32.8694C28.8556 33.1331 28.498 33.2812 28.125 33.2812H16.875C16.502 33.2812 16.1444 33.1331 15.8806 32.8694C15.6169 32.6056 15.4688 32.248 15.4688 31.875C15.4688 31.502 15.6169 31.1444 15.8806 30.8806C16.1444 30.6169 16.502 30.4688 16.875 30.4688H28.125Z" fill="white"/>
<path d="M29.5312 5.295C29.5312 4.95 29.8931 4.73063 30.1613 4.94625C30.3888 5.13 30.5906 5.34375 30.7669 5.5875L36.4163 13.4569C36.5438 13.6369 36.405 13.8694 36.1838 13.8694H30C29.8757 13.8694 29.7565 13.82 29.6685 13.7321C29.5806 13.6442 29.5312 13.5249 29.5312 13.4006V5.295Z" fill="white"/>
</svg>
