<svg width="20" height="20" viewBox="0 0 20 20" fill="none" xmlns="http://www.w3.org/2000/svg">
<path d="M5.60004 13.8667C5.81221 13.8048 6.04028 13.8297 6.23407 13.936C6.42786 14.0423 6.57149 14.2212 6.63337 14.4334C6.69526 14.6455 6.67032 14.8736 6.56405 15.0674C6.45778 15.2612 6.27888 15.4048 6.06671 15.4667C5.65004 15.5884 5.35004 15.7167 5.15754 15.8334C5.35587 15.9525 5.66921 16.0859 6.10421 16.21C7.06671 16.485 8.44421 16.6667 10 16.6667C11.5559 16.6667 12.9334 16.485 13.8959 16.21C14.3317 16.0859 14.6442 15.9525 14.8425 15.8334C14.6509 15.7167 14.3509 15.5884 13.9342 15.4667C13.7254 15.4021 13.5503 15.258 13.4467 15.0655C13.3431 14.873 13.3193 14.6475 13.3804 14.4376C13.4415 14.2277 13.5826 14.0503 13.7734 13.9435C13.9641 13.8367 14.1892 13.8091 14.4 13.8667C14.9567 14.0292 15.4667 14.2375 15.8584 14.505C16.2209 14.7542 16.6667 15.1884 16.6667 15.8334C16.6667 16.4859 16.21 16.9234 15.8417 17.1725C15.4434 17.4409 14.9225 17.65 14.3534 17.8125C13.205 18.1417 11.6667 18.3334 10 18.3334C8.33337 18.3334 6.79504 18.1417 5.64671 17.8125C5.07754 17.65 4.55671 17.4409 4.15837 17.1725C3.79004 16.9225 3.33337 16.4859 3.33337 15.8334C3.33337 15.1884 3.77921 14.7542 4.14171 14.505C4.53337 14.2375 5.04337 14.0292 5.60004 13.8667ZM10 1.66669C11.6576 1.66669 13.2474 2.32517 14.4195 3.49727C15.5916 4.66937 16.25 6.25908 16.25 7.91669C16.25 10.0567 15.0834 11.7967 13.875 13.0334C13.3947 13.52 12.8785 13.9698 12.3309 14.3792C11.8359 14.7509 10.7042 15.4475 10.7042 15.4475C10.4896 15.5695 10.2469 15.6337 10 15.6337C9.75316 15.6337 9.51051 15.5695 9.29587 15.4475C8.73425 15.1219 8.19119 14.7652 7.66921 14.3792C7.12074 13.9708 6.60449 13.5209 6.12504 13.0334C4.91671 11.7967 3.75004 10.0567 3.75004 7.91669C3.75004 6.25908 4.40852 4.66937 5.58062 3.49727C6.75273 2.32517 8.34244 1.66669 10 1.66669ZM10 6.25002C9.55801 6.25002 9.13409 6.42562 8.82153 6.73818C8.50897 7.05074 8.33337 7.47466 8.33337 7.91669C8.33337 8.35871 8.50897 8.78264 8.82153 9.0952C9.13409 9.40776 9.55801 9.58335 10 9.58335C10.4421 9.58335 10.866 9.40776 11.1786 9.0952C11.4911 8.78264 11.6667 8.35871 11.6667 7.91669C11.6667 7.47466 11.4911 7.05074 11.1786 6.73818C10.866 6.42562 10.4421 6.25002 10 6.25002Z" fill="#4C9390"/>
</svg>
