<svg width="20" height="20" viewBox="0 0 20 20" fill="none" xmlns="http://www.w3.org/2000/svg">
<path d="M15.625 4.375H4.375C3.87788 4.37551 3.40128 4.56424 3.04976 4.89977C2.69825 5.23531 2.50053 5.69025 2.5 6.16477V13.8352C2.50053 14.3097 2.69825 14.7647 3.04976 15.1002C3.40128 15.4358 3.87788 15.6245 4.375 15.625H15.625C16.1221 15.6245 16.5987 15.4358 16.9502 15.1002C17.3018 14.7647 17.4995 14.3097 17.5 13.8352V6.16477C17.4995 5.69025 17.3018 5.23531 16.9502 4.89977C16.5987 4.56424 16.1221 4.37551 15.625 4.375ZM15.1502 7.33548L10.3288 10.915C10.2348 10.9848 10.1191 11.0227 10 11.0227C9.88091 11.0227 9.76522 10.9848 9.67121 10.915L4.84978 7.33548C4.79313 7.29464 4.74555 7.24347 4.7098 7.18493C4.67405 7.12639 4.65085 7.06165 4.64153 6.99448C4.63222 6.92731 4.63699 6.85904 4.65556 6.79364C4.67413 6.72824 4.70613 6.66701 4.7497 6.61352C4.79327 6.56003 4.84754 6.51533 4.90937 6.48204C4.97119 6.44874 5.03933 6.4275 5.10983 6.41956C5.18032 6.41162 5.25177 6.41713 5.32002 6.43577C5.38826 6.45442 5.45195 6.48582 5.50737 6.52816L10 9.86353L14.4926 6.52816C14.605 6.44718 14.7462 6.41166 14.8857 6.42929C15.0253 6.44692 15.152 6.51627 15.2384 6.62235C15.3248 6.72844 15.364 6.86272 15.3475 6.99617C15.331 7.12962 15.2601 7.25151 15.1502 7.33548Z" fill="#4C9390"/>
</svg>
