<svg width="45" height="45" viewBox="0 0 45 45" fill="none" xmlns="http://www.w3.org/2000/svg">
<path d="M7.79998 25.6776C10.4133 25.6776 12.5318 22.7019 12.5318 19.0311C12.5318 15.3604 10.4133 12.3847 7.79998 12.3847C5.18668 12.3847 3.06818 15.3604 3.06818 19.0311C3.06818 22.7019 5.18668 25.6776 7.79998 25.6776Z" fill="white"/>
<path d="M16.8422 16.361C19.4555 16.361 21.574 13.3853 21.574 9.71461C21.574 6.04388 19.4555 3.06818 16.8422 3.06818C14.2289 3.06818 12.1104 6.04388 12.1104 9.71461C12.1104 13.3853 14.2289 16.361 16.8422 16.361Z" fill="white"/>
<path d="M28.4704 16.361C31.0838 16.361 33.2022 13.3853 33.2022 9.71461C33.2022 6.04388 31.0838 3.06818 28.4704 3.06818C25.8571 3.06818 23.7386 6.04388 23.7386 9.71461C23.7386 13.3853 25.8571 16.361 28.4704 16.361Z" fill="white"/>
<path d="M37.9341 25.6776C40.5474 25.6776 42.6659 22.7019 42.6659 19.0311C42.6659 15.3604 40.5474 12.3847 37.9341 12.3847C35.3208 12.3847 33.2023 15.3604 33.2023 19.0311C33.2023 22.7019 35.3208 25.6776 37.9341 25.6776Z" fill="white"/>
<path d="M39.1793 32.5545C38.4125 30.2414 36.8862 28.2573 34.8498 26.9262C33.2279 25.7457 31.9137 24.1906 31.0184 22.3928C30.3328 20.891 29.2361 19.6154 27.8558 18.7142C26.4755 17.813 24.8684 17.3234 23.2214 17.3023C21.577 17.2022 19.9381 17.5735 18.4963 18.3729C17.0545 19.1723 15.8695 20.3667 15.0797 21.8165C13.8182 23.9551 12.1905 25.8539 10.2712 27.4256C9.02884 28.3961 7.99859 29.6122 7.24441 30.9985C6.57168 32.114 6.21606 33.3928 6.21606 34.6963C6.21606 35.9999 6.57168 37.2787 7.24441 38.3941C8.40562 40.2171 10.2365 41.5077 12.3402 41.9863L13.9494 42.3512C15.016 42.5147 16.1012 42.5147 17.1678 42.3512C17.6659 42.236 18.1831 42.1592 18.6812 42.0247C19.6391 41.775 20.5969 41.4676 21.5739 41.2755C22.8545 41.0634 24.1668 41.1555 25.4053 41.5445C26.4781 41.8518 27.5892 42.0823 28.6812 42.3512C29.6907 42.5048 30.7176 42.5048 31.7272 42.3512C33.2847 42.0973 34.7838 41.5637 36.1525 40.7761C37.5185 39.9594 38.5641 38.6978 39.1149 37.2017C39.6657 35.7056 39.6885 34.0654 39.1793 32.5545ZM29.6007 31.8437C29.4909 32.1312 29.2921 32.3758 29.0336 32.5417C28.775 32.7076 28.4703 32.7862 28.164 32.7658H24.3325V33.0924C24.3325 34.2641 24.3325 35.4551 24.3325 36.6461C24.3434 36.9442 24.2604 37.2382 24.0954 37.4864C23.9304 37.7347 23.6916 37.9245 23.413 38.0292C23.1211 38.1579 22.7987 38.201 22.4834 38.1534C22.168 38.1058 21.8726 37.9694 21.6314 37.7602C21.4716 37.6186 21.3443 37.444 21.2583 37.2483C21.1724 37.0527 21.1297 36.8407 21.1333 36.6269C21.1333 35.4359 21.1333 34.2641 21.1333 33.0924V32.7658H17.6084C17.2868 32.7881 16.9659 32.7142 16.6863 32.5535C16.4066 32.3928 16.1808 32.1524 16.0375 31.863C15.9065 31.6325 15.8364 31.3722 15.8339 31.107C15.8314 30.8417 15.8966 30.5801 16.0233 30.3472C16.15 30.1143 16.334 29.9178 16.5578 29.7763C16.7815 29.6347 17.0377 29.5529 17.3019 29.5386C18.4896 29.5386 19.6774 29.5386 20.8651 29.5386H21.2099C21.2099 28.9623 21.2099 28.4245 21.2099 27.8866C21.2099 27.3488 21.2099 26.3883 21.2099 25.6391C21.1943 25.3374 21.2776 25.0389 21.4471 24.7891C21.6166 24.5394 21.863 24.3522 22.1486 24.2561C22.4469 24.1233 22.778 24.0835 23.0991 24.1417C23.4202 24.1999 23.7164 24.3535 23.9494 24.5826C24.234 24.8754 24.3923 25.2687 24.39 25.6775C24.39 26.8493 24.39 28.0403 24.39 29.2313V29.5386H27.9149C28.1703 29.5135 28.4281 29.5453 28.6698 29.6316C28.9116 29.718 29.1313 29.8567 29.3134 30.0381C29.5438 30.2702 29.7012 30.565 29.7659 30.8861C29.8306 31.2071 29.7998 31.5401 29.6774 31.8437H29.6007Z" fill="white"/>
</svg>
