<svg width="21" height="21" viewBox="0 0 21 21" fill="none" xmlns="http://www.w3.org/2000/svg">
<path d="M11.2665 11.2709C10.7742 11.7632 10.4976 12.4309 10.4976 13.1272C10.4976 13.8234 10.7742 14.4912 11.2665 14.9835C11.7588 15.4758 12.4266 15.7524 13.1228 15.7524C13.8191 15.7524 14.4868 15.4758 14.9791 14.9835M15.4936 11.991C15.2312 11.4429 14.7869 11.0029 14.2362 10.7459" stroke="#4B5563" stroke-width="1.5" stroke-linecap="round" stroke-linejoin="round"/>
<path d="M11.375 15.3125V19.25L13.125 17.9375L14.875 19.25V15.3125M8.75 16.625H4.375C3.91087 16.625 3.46575 16.4406 3.13756 16.1124C2.80937 15.7842 2.625 15.3391 2.625 14.875V6.125C2.625 5.1625 3.4125 4.375 4.375 4.375M7.875 4.375H16.625C17.0891 4.375 17.5342 4.55937 17.8624 4.88756C18.1906 5.21575 18.375 5.66087 18.375 6.125V14.875M5.25 7.875H7.875M11.375 7.875H15.75M5.25 10.5H7.875M5.25 13.125H7M2.625 2.625L18.375 18.375" stroke="#4B5563" stroke-width="1.5" stroke-linecap="round" stroke-linejoin="round"/>
</svg>
