<?xml version="1.0" encoding="UTF-8"?>
<svg id="Layer_3" data-name="Layer 3" xmlns="http://www.w3.org/2000/svg" viewBox="0 0 332.62 376.28">
  <defs>
    <style>
      .cls-1 {
        fill: #fff;
      }

      .cls-1, .cls-2 {
        stroke-width: 0px;
      }

      .cls-2 {
        fill: #f04c4d;
      }
    </style>
  </defs>
  <g>
    <path class="cls-2" d="M160.23,211.95c17.71-.13,31.09-12.22,33.09-29.87,1.29-11.37,1.28-22.96.04-34.33-1.99-18.25-15.62-29.68-34.07-29.7-18.93-.02-37.86,0-56.78,0-19.45,0-38.9-.02-58.35.01-19.18.03-33.56,14.3-33.72,33.49-.07,8.68-.04,17.37,0,26.05.08,19.46,14.05,34.19,33.63,34.35,38.72.31,77.45.29,116.17,0Z"/>
    <path class="cls-2" d="M303.67,109.66c-26.94-27.13-53.83-54.31-80.68-81.52-1.82-1.84-3.64-2.75-6.34-2.75-46.41.09-92.81,0-139.22.09-17.26.04-30.27,13.23-30.37,30.46-.07,11.47-.02,22.94-.02,34.42,0,11.69,0,11.55,11.96,11.46,3.45-.03,4.41-1.07,4.37-4.45-.17-13.56-.12-27.11-.06-40.67.04-9.13,5.55-14.74,14.49-14.74,43.97-.03,87.94-.02,131.92,0,5.53,0,7.07,1.56,7.09,7.12.03,14.25-.01,28.51.02,42.76.03,14.75,9.33,23.93,24.2,23.94,13.38,0,26.77,0,40.15,0,7.79,0,8.65.87,8.65,8.69,0,64.31,0,128.62,0,192.93,0,12.33-4.96,17.37-17.34,17.46-10.78.07-95.41.04-95.41.04,0,0,3.83,10.44-.49,15.87,18.52,0,82.8.07,100.14-.02,16.03-.09,29.3-13.09,29.33-29.17.11-68.66.03-137.31.08-205.97,0-2.45-.74-4.22-2.46-5.95Z"/>
    <path class="cls-2" d="M177.77,334.9s-86.46.17-96.53.04c-11.69-.15-16.74-5.37-16.75-16.99,0-26.05,0-52.1,0-78.15,0-12.36,0-12.24-12.2-12.08-3.21.04-4.11.99-4.09,4.14.1,30.04-.13,60.09.12,90.13.14,16.09,13.48,28.74,29.6,28.86,6.25.05,12.5.01,18.75.01,10.34,0,72.03,0,83.5,0-.86-4.61-2.39-15.97-2.39-15.97Z"/>
  </g>
  <g>
    <path class="cls-1" d="M61.26,170.99v14.53h-12.45v-39.99h17.08c4.26,0,7.5.49,9.71,1.46,2.22.98,3.97,2.47,5.27,4.48,1.3,2.01,1.95,4.27,1.95,6.77,0,3.81-1.33,6.88-3.98,9.23-2.66,2.34-6.2,3.52-10.63,3.52h-6.94ZM61.08,162.41h4.1c3.61,0,5.42-1.33,5.42-3.98,0-2.5-1.67-3.75-5.01-3.75h-4.51v7.73Z"/>
    <path class="cls-1" d="M87.39,185.52v-39.99h15.47c6.72,0,11.75,1.99,15.09,5.98s5.01,8.59,5.01,13.83c0,5.98-1.79,10.84-5.38,14.58-3.58,3.74-8.24,5.61-13.96,5.61h-16.23ZM99.66,176.32h3.19c2.03,0,3.75-.99,5.14-2.96,1.4-1.97,2.09-4.66,2.09-8.06,0-2.91-.62-5.42-1.86-7.53-1.24-2.11-3.03-3.16-5.38-3.16h-3.19v21.71Z"/>
    <path class="cls-1" d="M153.13,170.55h-13.04v14.97h-11.95v-39.99h28.92v9.52h-16.96v6.5h13.04v8.99Z"/>
  </g>
</svg>