<svg width="20" height="20" viewBox="0 0 20 20" fill="none" xmlns="http://www.w3.org/2000/svg">
<path d="M6.64828 3.33331C6.34403 3.33313 6.04329 3.39828 5.76639 3.52437C5.48949 3.65045 5.2429 3.83453 5.04328 4.06415C3.52745 5.58331 3.08245 7.29248 3.46078 9.01165C3.82745 10.6741 4.94245 12.2558 6.34078 13.655C7.74078 15.0541 9.32162 16.17 10.9825 16.5375C12.7008 16.9175 14.4116 16.4766 15.9324 14.9666C16.1629 14.7668 16.3478 14.5197 16.4745 14.2422C16.6012 13.9647 16.6668 13.6632 16.6669 13.3581C16.6669 13.053 16.6015 12.7515 16.4749 12.4739C16.3484 12.1963 16.1637 11.9492 15.9333 11.7491L14.9249 10.7408C14.5046 10.321 13.9349 10.0852 13.3408 10.0852C12.7467 10.0852 12.1769 10.321 11.7566 10.7408L11.2425 11.2558C11.1801 11.3182 11.106 11.3677 11.0245 11.4015C10.943 11.4352 10.8557 11.4526 10.7674 11.4526C10.6792 11.4526 10.5919 11.4352 10.5104 11.4015C10.4289 11.3677 10.3548 11.3182 10.2924 11.2558L8.74745 9.70998C8.62165 9.58391 8.55101 9.41308 8.55101 9.23498C8.55101 9.05688 8.62165 8.88606 8.74745 8.75998L9.26245 8.24331C9.68253 7.82296 9.9185 7.25301 9.9185 6.65873C9.9185 6.06446 9.68253 5.4945 9.26245 5.07415L8.25412 4.06498C8.05414 3.83553 7.80737 3.65152 7.5304 3.52532C7.25342 3.39913 6.95265 3.33366 6.64828 3.33331Z" fill="#4C9390"/>
</svg>
