<?xml version="1.0" encoding="UTF-8"?>
<svg id="Layer_3" data-name="Layer 3" xmlns="http://www.w3.org/2000/svg" viewBox="0 0 45 45">
  <defs>
    <style>
      .cls-1 {
        fill: #fff;
        stroke-width: 0px;
      }
    </style>
  </defs>
  <path class="cls-1" d="M37.5,11.25h-15l-3.75-3.75H7.5c-2.06,0-3.73,1.69-3.73,3.75l-.02,22.5c0,2.06,1.69,3.75,3.75,3.75h30c2.06,0,3.75-1.69,3.75-3.75V15c0-2.06-1.69-3.75-3.75-3.75ZM23.82,18.06c.27-.39.65-.7,1.09-.88.44-.18.93-.23,1.4-.14.47.09.9.32,1.24.65s.57.76.66,1.22c.09.46.05.94-.14,1.38-.18.44-.5.81-.89,1.07-.4.26-.87.4-1.35.4-.64,0-1.26-.25-1.72-.7-.46-.45-.71-1.05-.71-1.69,0-.47.14-.93.41-1.32ZM17.57,18.06c.27-.39.65-.7,1.09-.88.44-.18.93-.23,1.4-.14.47.09.9.32,1.24.65.34.33.57.76.66,1.22.09.46.05.94-.14,1.38-.18.44-.5.81-.89,1.07-.4.26-.87.4-1.35.4-.64,0-1.26-.25-1.72-.7-.46-.45-.71-1.05-.71-1.69,0-.47.14-.93.41-1.32ZM14.08,25.45c-.4-.26-.71-.63-.89-1.07-.18-.44-.23-.91-.14-1.38.09-.46.33-.89.66-1.22.34-.33.77-.56,1.24-.65.47-.09.96-.04,1.4.14.44.18.82.49,1.09.88.27.39.41.85.41,1.32,0,.63-.26,1.24-.71,1.69-.46.45-1.07.7-1.72.7-.48,0-.95-.14-1.35-.4ZM29.34,31.44c-.39.79-1.08,1.41-1.92,1.71-.84.31-1.77.28-2.59-.07-1.36-.55-2.88-.55-4.24,0-.43.18-.88.27-1.35.27-.77,0-1.52-.25-2.13-.72-.61-.47-1.04-1.12-1.23-1.85s-.12-1.51.19-2.2c.31-.69.85-1.27,1.53-1.63.71-.39,1.23-1.03,1.45-1.8.23-.78.71-1.46,1.37-1.95.66-.49,1.47-.75,2.29-.75s1.63.26,2.29.75c.66.49,1.14,1.17,1.37,1.95.11.38.3.73.55,1.04.25.31.56.57.91.76h0c.79.41,1.39,1.11,1.67,1.95.28.84.22,1.75-.17,2.54ZM32.02,24.8c-.27.39-.65.7-1.09.88-.44.18-.93.23-1.4.14-.47-.09-.9-.32-1.24-.65-.34-.33-.57-.76-.66-1.22-.09-.46-.05-.94.14-1.38.18-.44.5-.81.89-1.07.4-.26.87-.4,1.35-.4.64,0,1.26.25,1.72.7.46.45.71,1.05.71,1.69,0,.47-.14.93-.41,1.32Z"/>
</svg>