<svg width="14" height="14" viewBox="0 0 14 14" fill="none" xmlns="http://www.w3.org/2000/svg">
<path d="M8.8949 7L12.563 3.33189C13.0863 2.80864 13.0863 1.9603 12.563 1.43705C12.0397 0.913804 11.1915 0.913804 10.6682 1.43705L7.00006 5.10516L3.33195 1.43705C2.8087 0.913804 1.96037 0.913804 1.43712 1.43705C0.913865 1.9603 0.913865 2.80864 1.43712 3.33189L5.10522 7L1.43712 10.6681C0.913865 11.1914 0.913865 12.0397 1.43712 12.563C1.69874 12.8246 2.04163 12.9554 2.38452 12.9554C2.72741 12.9554 3.07033 12.8246 3.33193 12.563L7.00006 8.89484L10.6682 12.563C10.9298 12.8246 11.2727 12.9554 11.6156 12.9554C11.9585 12.9554 12.3014 12.8246 12.563 12.563C13.0862 12.0397 13.0862 11.1914 12.563 10.6681L8.8949 7Z" fill="#F24822"/>
</svg>
