<svg width="16" height="16" viewBox="0 0 16 16" fill="none" xmlns="http://www.w3.org/2000/svg">
<path d="M8 1.33334C4.31334 1.33334 1.33334 4.31334 1.33334 8C1.33334 11.6867 4.31334 14.6667 8 14.6667C11.6867 14.6667 14.6667 11.6867 14.6667 8C14.6667 4.31334 11.6867 1.33334 8 1.33334ZM10.8667 10.8667C10.805 10.9285 10.7317 10.9775 10.6511 11.011C10.5704 11.0444 10.484 11.0616 10.3967 11.0616C10.3094 11.0616 10.2229 11.0444 10.1423 11.011C10.0616 10.9775 9.98835 10.9285 9.92667 10.8667L8 8.94L6.07334 10.8667C5.94868 10.9913 5.77962 11.0613 5.60334 11.0613C5.42705 11.0613 5.25799 10.9913 5.13334 10.8667C5.00868 10.742 4.93866 10.573 4.93866 10.3967C4.93866 10.3094 4.95585 10.2229 4.98925 10.1423C5.02265 10.0617 5.07161 9.98839 5.13334 9.92667L7.06 8L5.13334 6.07334C5.00868 5.94868 4.93866 5.77962 4.93866 5.60334C4.93866 5.42705 5.00868 5.25799 5.13334 5.13334C5.25799 5.00868 5.42705 4.93866 5.60334 4.93866C5.77962 4.93866 5.94868 5.00868 6.07334 5.13334L8 7.06L9.92667 5.13334C9.98839 5.07161 10.0617 5.02265 10.1423 4.98925C10.2229 4.95585 10.3094 4.93866 10.3967 4.93866C10.484 4.93866 10.5704 4.95585 10.651 4.98925C10.7317 5.02265 10.8049 5.07161 10.8667 5.13334C10.9284 5.19506 10.9774 5.26833 11.0108 5.34897C11.0442 5.42962 11.0613 5.51605 11.0613 5.60334C11.0613 5.69062 11.0442 5.77706 11.0108 5.8577C10.9774 5.93834 10.9284 6.01161 10.8667 6.07334L8.94 8L10.8667 9.92667C11.12 10.18 11.12 10.6067 10.8667 10.8667Z" fill="white"/>
</svg>
