<svg width="20" height="20" viewBox="0 0 20 20" fill="none" xmlns="http://www.w3.org/2000/svg">
<path d="M10.625 18.125H9.37496C9.04344 18.125 8.7255 17.9933 8.49108 17.7589C8.25666 17.5245 8.12496 17.2065 8.12496 16.875L8.12692 13.5227C8.12696 13.4952 8.11977 13.4682 8.10607 13.4445C8.09237 13.4207 8.07265 13.4009 8.04889 13.3872C8.02513 13.3734 7.99817 13.3662 7.97072 13.3662C7.94328 13.3662 7.91631 13.3734 7.89254 13.3871L4.98863 15.0691C4.70622 15.2322 4.3706 15.2764 4.0556 15.192C3.74061 15.1076 3.47203 14.9015 3.30895 14.6191L2.66442 13.5004L2.66207 13.4965C2.50338 13.2142 2.46179 12.8809 2.54623 12.5683C2.63067 12.2556 2.8344 11.9886 3.11363 11.8246L6.02809 10.1352C6.05177 10.1214 6.07142 10.1017 6.08508 10.078C6.09874 10.0543 6.10594 10.0274 6.10594 10C6.10594 9.97263 6.09874 9.94573 6.08508 9.92201C6.07142 9.89829 6.05177 9.87858 6.02809 9.86484L3.11637 8.17695C2.97617 8.09656 2.85324 7.98927 2.75463 7.86123C2.65602 7.73319 2.58368 7.58694 2.54176 7.43086C2.49983 7.27478 2.48916 7.11196 2.51034 6.95175C2.53153 6.79153 2.58415 6.63708 2.6652 6.49727L3.30738 5.38203C3.38853 5.24104 3.49685 5.11755 3.62606 5.01871C3.75527 4.91988 3.9028 4.84766 4.06012 4.80625C4.21564 4.76451 4.37791 4.75407 4.5375 4.77553C4.69709 4.79698 4.85083 4.84992 4.98981 4.93125L7.89254 6.61094C7.91631 6.62466 7.94328 6.63188 7.97072 6.63187C7.99817 6.63186 8.02513 6.62462 8.04889 6.61088C8.07265 6.59714 8.09237 6.57738 8.10607 6.5536C8.11977 6.52981 8.12696 6.50284 8.12692 6.47539L8.12496 3.125C8.12496 2.79348 8.25666 2.47554 8.49108 2.24112C8.7255 2.0067 9.04344 1.875 9.37496 1.875H10.625C10.9565 1.875 11.2744 2.0067 11.5088 2.24112C11.7433 2.47554 11.875 2.79348 11.875 3.125V6.47344C11.8749 6.50088 11.8821 6.52786 11.8958 6.55164C11.9095 6.57543 11.9292 6.59519 11.953 6.60893C11.9767 6.62267 12.0037 6.62991 12.0312 6.62992C12.0586 6.62993 12.0856 6.62271 12.1093 6.60898L15.0132 4.92695C15.2957 4.76423 15.6312 4.72021 15.9462 4.80458C16.2611 4.88894 16.5296 5.09479 16.6929 5.37695L17.3371 6.4957L17.3394 6.49922C17.4999 6.7818 17.5422 7.11638 17.457 7.43001C17.3718 7.74364 17.1661 8.01087 16.8847 8.17344L13.9734 9.86094C13.9497 9.87467 13.9301 9.89439 13.9164 9.91811C13.9027 9.94183 13.8956 9.96872 13.8956 9.99609C13.8956 10.0235 13.9027 10.0504 13.9164 10.0741C13.9301 10.0978 13.9497 10.1175 13.9734 10.1312L16.8847 11.8188C17.0249 11.8991 17.1479 12.0064 17.2465 12.1345C17.3451 12.2625 17.4175 12.4087 17.4594 12.5648C17.5014 12.7209 17.5121 12.8837 17.491 13.0439C17.4698 13.2041 17.4173 13.3586 17.3363 13.4984L16.6941 14.6137C16.613 14.7547 16.5046 14.8782 16.3754 14.977C16.2462 15.0758 16.0987 15.148 15.9414 15.1895C15.7858 15.2312 15.6236 15.2416 15.464 15.2202C15.3044 15.1987 15.1507 15.1458 15.0117 15.0645L12.1089 13.3848C12.0852 13.3711 12.0583 13.3638 12.0309 13.3638C12.0034 13.3638 11.9765 13.371 11.9528 13.3847C11.929 13.3984 11.9093 13.4181 11.8956 13.4419C11.8818 13.4656 11.8746 13.4925 11.8746 13.5199L11.875 16.875C11.875 17.2065 11.7433 17.5245 11.5088 17.7589C11.2744 17.9933 10.9565 18.125 10.625 18.125Z" fill="#4C9390"/>
</svg>
