<?xml version="1.0" encoding="UTF-8"?>
<svg id="Layer_3" data-name="Layer 3" xmlns="http://www.w3.org/2000/svg" viewBox="0 0 25 22.36">
  <defs>
    <style>
      .cls-1 {
        fill: #4c9390;
        stroke-width: 0px;
      }
    </style>
  </defs>
  <path class="cls-1" d="M7.21,6.82v12.72H3.18V6.82H.3V2.82h11.91v4.01h-5Z"/>
  <path class="cls-1" d="M12.21,7.61v11.94h-4.26V7.61h4.26Z"/>
  <path class="cls-1" d="M17.22,13.47v6.08h-4.32V2.82h5.92c1.48,0,2.6.2,3.37.61.77.41,1.38,1.03,1.83,1.88.45.84.68,1.79.68,2.83,0,1.59-.46,2.88-1.38,3.86-.92.98-2.15,1.47-3.69,1.47h-2.41ZM17.16,9.88h1.42c1.25,0,1.88-.56,1.88-1.67,0-1.05-.58-1.57-1.74-1.57h-1.56v3.24Z"/>
</svg>