<svg width="45" height="45" viewBox="0 0 45 45" fill="none" xmlns="http://www.w3.org/2000/svg">
<path d="M41.24 10.879C40.9633 10.5038 40.6362 10.1677 40.268 9.87999C39.4933 9.33888 38.6048 8.97907 37.6694 8.82765C36.734 8.67623 35.7762 8.73715 34.868 9.00583C32.8437 9.54907 31.0467 10.7176 29.738 12.3419C28.8774 13.3564 28.2343 14.534 27.848 15.8029C27.7089 16.2751 27.6125 16.7587 27.56 17.2479C27.5513 17.3011 27.5513 17.3553 27.56 17.4085C27.5333 17.7529 27.5333 18.0988 27.56 18.4432C27.5641 19.7059 27.9258 20.9422 28.604 22.0112L25.958 24.9905C24.3131 23.4716 22.3535 22.327 20.216 21.6365C22.1374 20.7404 23.6934 19.2221 24.6275 17.3321C25.5617 15.442 25.8182 13.2929 25.355 11.239C24.8917 9.18504 23.7362 7.34882 22.0789 6.03292C20.4217 4.71703 18.3615 4 16.238 4C14.1145 4 12.0543 4.71703 10.3971 6.03292C8.73979 7.34882 7.58431 9.18504 7.12103 11.239C6.65775 13.2929 6.91434 15.442 7.84849 17.3321C8.78265 19.2221 10.3386 20.7404 12.26 21.6365C6.338 23.5633 2 29.5218 2 34.1246C2 39.6728 8.354 41.1 16.202 41.1C24.05 41.1 30.386 39.6728 30.386 34.1246C30.2534 31.6474 29.3477 29.2723 27.794 27.3275L30.242 24.5802C30.944 25.49 31.754 26.4712 32.492 27.4167C33.2442 28.4469 33.8952 29.5461 34.436 30.6993C35.12 32.1978 36.038 34.41 38.576 34.749C39.548 34.8738 40.934 34.5349 42.068 32.18C44.57 26.8994 44.498 14.0724 41.24 10.879ZM38.342 19.799C37.2123 20.9632 35.7363 21.7384 34.13 22.0112C33.4961 22.1528 32.837 22.1391 32.2097 21.9712C31.5824 21.8033 31.0058 21.4864 30.53 21.0478C30.087 20.5763 29.7656 20.0055 29.5932 19.3842C29.4208 18.763 29.4026 18.1096 29.54 17.4798C29.8276 15.8661 30.6361 14.3886 31.844 13.2696C32.98 12.1041 34.4621 11.329 36.074 11.0574C36.3377 11.0397 36.6023 11.0397 36.866 11.0574C37.3686 11.0409 37.8694 11.1239 38.3392 11.3015C38.809 11.4792 39.2383 11.748 39.602 12.0921C41.384 13.8226 40.826 17.2657 38.342 19.7277V19.799Z" fill="white"/>
</svg>
