<svg width="23" height="24" viewBox="0 0 23 24" fill="none" xmlns="http://www.w3.org/2000/svg">
<path d="M19.8248 7.15212C19.699 6.98019 19.5505 6.82619 19.3832 6.69433C19.0313 6.44639 18.6277 6.28151 18.2028 6.21213C17.7779 6.14275 17.3428 6.17066 16.9303 6.29378C16.0107 6.5427 15.1944 7.07817 14.6 7.82244C14.209 8.28729 13.9169 8.82689 13.7414 9.40832C13.6782 9.62471 13.6345 9.84631 13.6106 10.0705C13.6067 10.0948 13.6067 10.1197 13.6106 10.144C13.5985 10.3019 13.5985 10.4604 13.6106 10.6182C13.6125 11.1968 13.7768 11.7633 14.0849 12.2531L12.8829 13.6183C12.1357 12.9223 11.2456 12.3978 10.2746 12.0814C11.1474 11.6708 11.8542 10.9751 12.2785 10.109C12.7029 9.24297 12.8194 8.25822 12.609 7.31706C12.3985 6.3759 11.8737 5.5345 11.1208 4.93153C10.368 4.32856 9.43221 4 8.46761 4C7.503 4 6.56718 4.32856 5.81436 4.93153C5.06155 5.5345 4.53667 6.3759 4.32623 7.31706C4.11578 8.25822 4.23234 9.24297 4.65667 10.109C5.08101 10.9751 5.78782 11.6708 6.6606 12.0814C3.97053 12.9643 2 15.6946 2 17.8037C2 20.346 4.8863 21 8.45125 21C12.0162 21 14.8943 20.346 14.8943 17.8037C14.8341 16.6686 14.4227 15.5803 13.7169 14.6892L14.8289 13.4303C15.1478 13.8472 15.5157 14.2968 15.851 14.73C16.1927 15.2021 16.4884 15.7058 16.734 16.2342C17.0447 16.9208 17.4617 17.9345 18.6146 18.0898C19.0562 18.147 19.6858 17.9917 20.2009 16.9127C21.3374 14.493 21.3047 8.61538 19.8248 7.15212ZM18.5083 11.2394C17.9952 11.7729 17.3247 12.1281 16.595 12.2531C16.3071 12.318 16.0077 12.3117 15.7227 12.2348C15.4378 12.1579 15.1759 12.0126 14.9597 11.8117C14.7585 11.5956 14.6125 11.3341 14.5342 11.0494C14.4559 10.7647 14.4476 10.4653 14.51 10.1767C14.6407 9.4373 15.008 8.76028 15.5566 8.24752C16.0726 7.71347 16.7459 7.3583 17.4781 7.23386C17.5979 7.22574 17.7181 7.22574 17.8379 7.23386C18.0662 7.22627 18.2937 7.2643 18.5071 7.34571C18.7205 7.42713 18.9155 7.55029 19.0807 7.70799C19.8902 8.50094 19.6367 10.0786 18.5083 11.2067V11.2394Z" fill="#4C9390"/>
</svg>
