<?xml version="1.0" encoding="UTF-8"?>
<svg xmlns="http://www.w3.org/2000/svg" viewBox="0 0 32 32">
  <defs>
    <style>
      .cls-1 {
        fill: #2b2b2b;
      }

      .cls-1, .cls-2 {
        stroke-width: 0px;
      }

      .cls-2 {
        fill: #fff;
      }
    </style>
  </defs>
  <g id="Background">
    <rect id="Background-2" data-name="Background" class="cls-1" width="32" height="32" rx="4.81" ry="4.81"/>
  </g>
  <g id="Layer_3" data-name="Layer 3">
    <g id="SCC_Logo" data-name="SCC Logo">
      <path class="cls-2" d="M11.28,17.73h4.03c.37,3.89.74,7.77,1.11,11.67h-2.28c-.06-.62-.12-1.22-.17-1.84h-1.32c-.05.62-.1,1.23-.15,1.84h-2.33c.38-3.9.75-7.77,1.12-11.67ZM12.81,25.63h.98c-.16-1.92-.33-3.81-.49-5.7-.02,0-.04,0-.06,0-.14,1.89-.28,3.78-.42,5.7Z"/>
      <path class="cls-2" d="M7.35,24.4h2.38c-.02,1.16.02,2.75-.2,3.39-.32.96-.9,1.51-1.89,1.66-.93.15-1.85.13-2.64-.48-.67-.52-1.02-1.25-1.02-2.07-.02-2.23,0-4.46.05-6.7.04-1.65,1.42-2.46,2.24-2.54.49-.05,1-.02,1.48.07,1.17.23,1.9,1.07,1.97,2.25.05.79,0,1.59,0,2.41h-2.38c0-.54,0-1.07,0-1.61-.02-.88-.27-.98-.51-.97-.18,0-.48.14-.48.88,0,1.91.02,3.81,0,5.72,0,.65.14.92.5.92.33,0,.49-.25.5-.96,0-.65,0-1.3,0-1.97Z"/>
      <path class="cls-2" d="M20.47,29.41h-2.42v-9.46h-1.35v-2.22h5.11v2.2h-1.34v9.47Z"/>
      <path class="cls-2" d="M12.27,8.75c.98,0,1.94-.01,2.89,0,.86.02,1.2.68,1.2,1.98s0,1.76-.56,2.13c.31.14.48.5.48.91.01,1.05,0,2.11,0,3.16,0,.05-.03.11-.05.17h-1.67c0-.84,0-1.66,0-2.48,0-.23,0-.46,0-.68.02-.37-.13-.56-.56-.54v3.7h-1.73v-8.34ZM14.04,11.86c.43.12.6-.08.63-.43.02-.21.02-.43,0-.64-.02-.45-.16-.54-.64-.43v1.51Z"/>
      <path class="cls-2" d="M3.74,13.98h1.71c0,.39.01.75.02,1.12,0,.25.05.53.36.54.33.01.34-.27.35-.52.03-.53-.14-.98-.52-1.35-.4-.39-.8-.77-1.17-1.18-1.06-1.17-.93-2.05-.63-2.86.22-.58.79-1.03,1.92-1.03,1.48,0,2.24.89,2.04,2.43h-1.72c.04-.78-.16-.91-.39-.9s-.3.3-.26.46c.07.28.2.49.39.7.45.51.98.95,1.43,1.46.79.89.88,2.7.22,3.69-.02.04-.05.07-.07.1-.57.67-1.33.64-2.08.55-.7-.08-1.31-.41-1.47-1.13-.14-.64-.12-1.32-.12-2.07Z"/>
      <path class="cls-2" d="M16.91,8.77h3.36v1.6h-1.58v1.62h1.51v1.53h-1.5v1.96h1.66v1.62h-3.45v-8.33Z"/>
      <path class="cls-2" d="M24.39,17.1h-3.47v-8.32h3.37v1.6h-1.57v1.6h1.5v1.56h-1.5v1.95h1.68v1.62Z"/>
      <path class="cls-2" d="M8.13,10.4v-1.62h3.68v1.6h-.96v6.72h-1.73v-6.7h-.99Z"/>
      <path class="cls-2" d="M22.7,25.98v-.88s2.17-.48,2.17-.48c0,0-1.56.03-2.16.03v-.93h4.7v.95s-2.24.43-2.24.43l2.24-.04v.91h-4.71Z"/>
      <path class="cls-2" d="M4.41,8.68h-.63s-.06-2.76.08-3.88c.09-.68.41-1.36.75-1.97.4-.72.98-.93,1.75-.64.68.26,1.36.59,1.96,1,1,.67,1.92,1.39,2.66,2.37.06.08.42.62.14.79s-.52-.17-.6-.28c-.85-1.12-1.62-1.7-2.78-2.46-.44-.29-1.05-.6-1.67-.77-.36-.1-.63.01-.86.3-.47.62-.71,1.34-.77,2.09-.13,1.63-.04,3.45-.04,3.45Z"/>
      <path class="cls-2" d="M25.47,20.04v-.98c.9-.02,1.07-.02,1.07-.21s-.21-.18-.32-.18c-.78-.02-1.56-.01-2.35,0-.1,0-.29.01-.29.18s.11.2,1.13.21v.98s-.88,0-1.32-.08c-.55-.11-.81-.55-.78-1.2.02-.55.36-1.01.89-1.03,1.02-.04,2.05-.05,3.07,0,.6.03.92.51.9,1.15-.01.63-.36,1.06-.95,1.13-.32.04-1.06.03-1.06.03Z"/>
      <path class="cls-2" d="M25.49,29.94v-.98c.9-.02,1.07-.02,1.07-.21s-.21-.18-.32-.18c-.78-.02-1.56-.01-2.35,0-.1,0-.29.01-.29.18s.11.2,1.13.21v.98s-.88,0-1.32-.08c-.55-.11-.81-.55-.78-1.2.02-.55.36-1.01.89-1.03,1.02-.04,2.05-.05,3.07,0,.6.03.92.51.9,1.15-.01.63-.36,1.06-.95,1.13-.32.04-1.06.03-1.06.03Z"/>
      <polygon class="cls-2" points="23.52 22.21 22.71 22.22 22.7 20.3 27.41 20.3 27.41 21.26 23.51 21.25 23.52 22.21"/>
      <path class="cls-2" d="M27.42,22.43v.89h-4.71v-.89h4.71Z"/>
      <path class="cls-2" d="M22.69,27.25v-.88h4.73v.88h-4.73Z"/>
      <path class="cls-2" d="M25.07,2.98c-1.79,1.03-2.8,1.86-3.85,3.2-.09.11-.28.27-.5.16s-.11-.43-.03-.55c.23-.35.52-.67.83-.96.77-.73,1.62-1.38,2.5-1.97.2-.13.52-.31.52-.31,0,0,.28.23.52.44Z"/>
      <path class="cls-2" d="M6.18,5.06c.61-.01,1.11.28,1.55.64.4.33.77.71,1.1,1.11.08.1.2.41-.01.54s-.42-.05-.53-.18c-.6-.64-.88-.99-1.54-1.3-.19-.09-.47-.13-.7-.1-.21.03-.47.19-.59-.1s.11-.45.35-.54c.12-.04.25-.05.37-.07Z"/>
      <path class="cls-2" d="M25.73,5.09c.29,0,.46.07.64.21.12.09.14.28.08.38-.08.13-.24.23-.41.15-.63-.23-1.14.16-1.42.34-.34.27-.73.66-1.04,1.01-.11.13-.26.28-.5.18s-.13-.43-.05-.54c.7-.88,1.67-1.71,2.71-1.73Z"/>
      <path class="cls-2" d="M28.26,5.29s-.34-.3-.79-.56c.19,1.83.19,2.42,0,3.99h.79c-.01-.39,0-3.42,0-3.42Z"/>
      <path class="cls-2" d="M28.35,8.76h-3.68v1.63h.97v6.71h1.76v-6.74h.97v-1.6Z"/>
    </g>
  </g>
</svg>