<svg id="Layer_1" data-name="Layer 1" xmlns="http://www.w3.org/2000/svg" viewBox="0 0 340 340"><defs><style>.cls-1{fill:#fff;}</style></defs><path class="cls-1" d="M115.13,190.12h46.78c4.29,45.21,8.57,90.23,12.88,135.59H148.32c-.68-7.17-1.34-14.18-2-21.35H130.9c-.59,7.26-1.17,14.28-1.75,21.34H102.07C106.44,280.36,110.77,235.38,115.13,190.12Zm17.76,91.77h11.35c-1.92-22.27-3.81-44.24-5.7-66.21l-.75,0C136.17,237.59,134.54,259.54,132.89,281.89Z"/><path class="cls-1" d="M69.53,267.55H97.14c-.26,13.47.18,31.95-2.32,39.4-3.75,11.17-10.49,17.56-21.91,19.34-10.83,1.69-21.48,1.55-30.7-5.63a29.86,29.86,0,0,1-11.89-24.1q-.32-38.91.59-77.81c.42-19.12,16.49-28.58,26-29.55a58.74,58.74,0,0,1,17.2.82c13.6,2.72,22.1,12.43,22.92,26.2.55,9.18.1,18.42.1,28H69.54c0-6.24.08-12.46,0-18.67-.2-10.22-3.13-11.36-5.94-11.32-2.1,0-5.61,1.61-5.63,10.22-.06,22.15.27,44.3,0,66.45-.1,7.56,1.62,10.7,5.77,10.72,3.84,0,5.71-2.94,5.81-11.13C69.58,282.92,69.53,275.36,69.53,267.55Z"/><path class="cls-1" d="M221.88,325.82H193.71V215.92H178V190.18h59.39v25.58H221.88Z"/><path class="cls-1" d="M126.62,85.74c11.44,0,22.5-.17,33.55.11,10,.25,13.94,7.94,13.94,23,0,15.68,0,20.45-6.45,24.76,3.62,1.6,5.56,5.76,5.62,10.63.15,12.22,0,24.45-.08,36.68a8.21,8.21,0,0,1-.56,2H153.27V154c0-2.65-.11-5.3,0-7.93.21-4.31-1.56-6.56-6.54-6.33v42.94H126.62ZM147.2,122c5,1.43,6.93-.93,7.38-5a47.24,47.24,0,0,0,.11-7.43c-.27-5.21-1.84-6.26-7.49-5Z"/><path class="cls-1" d="M27.5,146.58H47.33c0,4.5.13,8.75.19,13,0,3,.62,6.12,4.18,6.25,3.84.14,3.94-3.16,4.08-6.07a19.57,19.57,0,0,0-6-15.67c-4.59-4.52-9.31-8.93-13.62-13.71-12.31-13.61-10.83-23.84-7.34-33.23,2.51-6.77,9.22-12,22.27-12,17.25,0,26,10.3,23.75,28.17h-20c.5-9-1.91-10.56-4.55-10.45s-3.49,3.47-3,5.36a18.62,18.62,0,0,0,4.51,8.11c5.28,5.9,11.39,11,16.62,17,9.16,10.38,10.21,31.38,2.58,42.85-.28.41-.56.82-.87,1.2-6.57,7.82-15.49,7.4-24.22,6.35-8.11-1-15.23-4.76-17-13.14C27.31,163.12,27.53,155.23,27.5,146.58Z"/><path class="cls-1" d="M180.61,86h39.08v18.58H201.33v18.78h17.53v17.79H201.47v22.8h19.25v18.79H180.61Z"/><path class="cls-1" d="M267.45,182.82H227.1V86.1h39.16v18.54H248v18.58h17.42v18.13H248V164h19.49Z"/><path class="cls-1" d="M78.62,104.88V86.08h42.79v18.54h-11.2V182.7H90.1V104.88Z"/><path class="cls-1" d="M247.9,286l0-10.28,25.15-5.53s-18.14.36-25.13.36V259.69h54.63v11.07l-26.08,5,26.08-.44v10.52Z"/><path class="cls-1" d="M35.36,84.93,28,85s-.73-32.21,1-45.22c1.05-7.9,4.81-15.76,8.75-22.86C42.4,8.61,49.2,6.17,58.06,9.49A111.43,111.43,0,0,1,80.85,21.1c11.65,7.81,22.3,16.14,30.9,27.51.7.92,4.85,7.17,1.61,9.2s-6-2-7-3.25C96.54,41.54,87.53,34.78,74.11,26a73.21,73.21,0,0,0-19.36-8.94c-4.18-1.18-7.34.11-9.93,3.5a45.38,45.38,0,0,0-9,24.32A355.89,355.89,0,0,0,35.36,84.93Z"/><path class="cls-1" d="M280,217V205.58c10.41-.24,12.44-.28,12.43-2.47S290,201,288.75,201c-9.08-.18-18.17-.16-27.25,0-1.19,0-3.36.15-3.33,2.12s1.26,2.36,13.16,2.39v11.44s-10.28.07-15.3-.89c-6.44-1.24-9.37-6.4-9-14,.29-6.37,4.2-11.77,10.31-12,11.86-.5,23.78-.55,35.62.1,7,.39,10.65,6,10.48,13.32s-4.16,12.28-11,13.08C288.7,217,280,217,280,217Z"/><path class="cls-1" d="M280.26,331.94V320.57c10.4-.24,12.44-.27,12.43-2.47S290.22,316,289,316q-13.62-.27-27.26,0c-1.19,0-3.35.16-3.32,2.13s1.26,2.35,13.16,2.38v11.45s-10.28.07-15.31-.9c-6.44-1.24-9.37-6.4-9-14,.28-6.37,4.2-11.76,10.31-12,11.85-.5,23.77-.55,35.62.11,7,.38,10.64,6,10.47,13.31s-4.16,12.28-11,13.08C288.91,332,280.26,331.94,280.26,331.94Z"/><polygon class="cls-1" points="257.33 242.13 247.93 242.27 247.88 219.97 302.58 219.97 302.58 231.08 257.3 230.98 257.33 242.13"/><path class="cls-1" d="M302.67,244.76v10.31H247.93V244.76Z"/><path class="cls-1" d="M247.71,300.75V290.54h54.9v10.21Z"/><path class="cls-1" d="M275.4,18.68c-20.84,12-32.55,21.59-44.77,37.19-1,1.31-3.26,3.12-5.76,1.8s-1.28-5-.32-6.43a64.33,64.33,0,0,1,9.67-11.12,232.37,232.37,0,0,1,29-22.95c2.28-1.53,6.06-3.56,6.06-3.56Z"/><path class="cls-1" d="M55.87,42.86c7.12-.13,12.86,3.26,18,7.48A99.44,99.44,0,0,1,86.67,63.22c1,1.17,2.28,4.79-.13,6.3s-4.84-.64-6.17-2.06c-7-7.48-10.23-11.54-17.92-15.12a16.16,16.16,0,0,0-8.08-1.16c-2.45.31-5.49,2.22-6.89-1.2s1.26-5.2,4.08-6.27A25.48,25.48,0,0,1,55.87,42.86Z"/><path class="cls-1" d="M283.09,43.24a10.31,10.31,0,0,1,7.41,2.4,3.68,3.68,0,0,1-3.89,6.15c-7.35-2.71-13.21,1.85-16.5,3.94A99.69,99.69,0,0,0,258,67.5c-1.28,1.45-3,3.27-5.82,2.08s-1.52-5-.58-6.22C259.73,53.16,271,43.48,283.09,43.24Z"/><path class="cls-1" d="M312.42,45.56A64.69,64.69,0,0,0,303.27,39c2.18,21.31,2.23,28.12,0,46.31h9.15C312.27,80.77,312.42,45.56,312.42,45.56Z"/><path class="cls-1" d="M313.5,85.94H270.73v18.9H282v77.93h20.41V104.51h11.28Z"/></svg>